<?xml version="1.0" standalone="no"?><!DOCTYPE svg PUBLIC "-//W3C//DTD SVG 1.1//EN" "http://www.w3.org/Graphics/SVG/1.1/DTD/svg11.dtd"><svg t="1608635563483" class="icon" viewBox="0 0 1024 1024" version="1.1" xmlns="http://www.w3.org/2000/svg" p-id="5096" width="32" height="32" xmlns:xlink="http://www.w3.org/1999/xlink"><defs><style type="text/css"></style></defs><path d="M442.632258 782.864516c-36.335484-36.335484-97.445161-36.335484-133.780645 0-36.335484 36.335484-36.335484 97.445161 0 133.780645 18.167742 18.167742 42.941935 28.077419 67.716129 28.07742s47.896774-9.909677 67.716129-28.07742c34.683871-36.335484 34.683871-95.793548-1.651613-133.780645z m-47.896774 87.535484c-11.56129 11.56129-29.729032 11.56129-41.290323 0s-11.56129-29.729032 0-41.290323c4.954839-4.954839 13.212903-8.258065 19.819355-8.258064s14.864516 3.303226 19.819355 8.258064c13.212903 13.212903 13.212903 31.380645 1.651613 41.290323zM663.948387 782.864516c-36.335484 36.335484-36.335484 97.445161 0 133.780645 18.167742 18.167742 41.290323 28.077419 67.716129 28.07742s49.548387-9.909677 67.716129-28.07742c36.335484-36.335484 36.335484-97.445161 0-133.780645s-99.096774-36.335484-135.432258 0z m87.535484 87.535484c-11.56129 11.56129-29.729032 11.56129-41.290323 0s-11.56129-29.729032 0-41.290323c4.954839-4.954839 13.212903-8.258065 19.819355-8.258064s14.864516 3.303226 19.819355 8.258064c11.56129 13.212903 11.56129 31.380645 1.651613 41.290323zM792.774194 186.632258H379.870968c-18.167742 0-33.032258 14.864516-33.032258 33.032258s14.864516 33.032258 33.032258 33.032258h412.903226c18.167742 0 33.032258 14.864516 33.032258 33.032258v206.451613c0 90.83871-74.322581 165.16129-165.161291 165.16129H445.935484c-90.83871 0-165.16129-74.322581-165.16129-165.16129V313.806452c0-105.703226-85.883871-193.23871-193.23871-193.23871-18.167742 0-33.032258 14.864516-33.032258 33.032258s14.864516 33.032258 33.032258 33.032258c69.367742 0 127.174194 56.154839 127.174193 127.174194v178.374193c0 127.174194 104.051613 231.225806 231.225807 231.225807h214.709677c127.174194 0 231.225806-104.051613 231.225807-231.225807V285.729032c0-54.503226-44.593548-99.096774-99.096774-99.096774z" fill="#e98f36" p-id="5097"></path><path d="M445.935484 624.309677h47.896774c9.909677 0 16.516129-6.606452 16.516129-16.516129s-6.606452-16.516129-16.516129-16.516129H445.935484c-54.503226 0-99.096774-44.593548-99.096774-99.096774v-61.109677c0-9.909677-6.606452-16.516129-16.516129-16.516129s-16.516129 6.606452-16.516129 16.516129v61.109677c0 72.670968 57.806452 132.129032 132.129032 132.129032zM592.929032 624.309677c9.909677 0 16.516129-6.606452 16.516129-16.516129s-6.606452-16.516129-16.516129-16.516129h-33.032258c-9.909677 0-16.516129 6.606452-16.516129 16.516129s6.606452 16.516129 16.516129 16.516129h33.032258z" fill="#e98f36" p-id="5098"></path></svg>