<?xml version="1.0" standalone="no"?><!DOCTYPE svg PUBLIC "-//W3C//DTD SVG 1.1//EN" "http://www.w3.org/Graphics/SVG/1.1/DTD/svg11.dtd"><svg t="1608635631813" class="icon" viewBox="0 0 1024 1024" version="1.1" xmlns="http://www.w3.org/2000/svg" p-id="6427" width="32" height="32" xmlns:xlink="http://www.w3.org/1999/xlink"><defs><style type="text/css"></style></defs><path d="M320 960c-9.6 0-17.6-3.2-24-11.2-11.2-12.8-9.6-33.6 4.8-44.8l174.4-145.6C492.8 744 513.6 736 536 736h328c17.6 0 32-14.4 32-32V192c0-17.6-14.4-32-32-32H160c-17.6 0-32 14.4-32 32v512c0 17.6 14.4 32 32 32h128c17.6 0 32 14.4 32 32s-14.4 32-32 32H160c-52.8 0-96-43.2-96-96V192c0-52.8 43.2-96 96-96h704c52.8 0 96 43.2 96 96v512c0 52.8-43.2 96-96 96H534.4c-8 0-14.4 3.2-20.8 8L339.2 953.6c-4.8 3.2-11.2 6.4-19.2 6.4z m-32-464c-17.6 0-32-14.4-32-32v-32c0-17.6 14.4-32 32-32s32 14.4 32 32v32c0 17.6-14.4 32-32 32z m224 0c-17.6 0-32-14.4-32-32v-32c0-17.6 14.4-32 32-32s32 14.4 32 32v32c0 17.6-14.4 32-32 32z m224 0c-17.6 0-32-14.4-32-32v-32c0-17.6 14.4-32 32-32s32 14.4 32 32v32c0 17.6-14.4 32-32 32z" p-id="6428"></path></svg>